PathFileType	4	(X/Y/Z)	Kaydara	
DataRate	CameraRate	NumFrames	NumMarkers	Units	OrigDataRate	OrigDataStartFrame	OrigNumFrames	
240.00	240.00	4	72	mm	240.00	45	359	
Frame#	Time	Hips			RightUpLeg			RightLeg			RightFoot			RightFoot_End			LeftUpLeg			LeftLeg			LeftFoot			LeftFoot_End			Spine			Spine1			Spine2			Spine3			Neck			Head			Head_End			RightShoulder			RightArm			RightForeArm			RightHand			RightHandThumb1			RightHandThumb2			RightHandThumb3			RightHandThumb3_End			RightInHandIndex			RightHandIndex1			RightHandIndex2			RightHandIndex3			RightHandIndex3_End			RightInHandMiddle			RightHandMiddle1			RightHandMiddle2			RightHandMiddle3			RightHandMiddle3_End			RightInHandRing			RightHandRing1			RightHandRing2			RightHandRing3			RightHandRing3_End			RightInHandPinky			RightHandPinky1			RightHandPinky2			RightHandPinky3			RightHandPinky3_End			LeftShoulder			LeftArm			LeftForeArm			LeftHand			LeftHandThumb1			LeftHandThumb2			LeftHandThumb3			LeftHandThumb3_End			LeftInHandIndex			LeftHandIndex1			LeftHandIndex2			LeftHandIndex3			LeftHandIndex3_End			LeftInHandMiddle			LeftHandMiddle1			LeftHandMiddle2			LeftHandMiddle3			LeftHandMiddle3_End			LeftInHandRing			LeftHandRing1			LeftHandRing2			LeftHandRing3			LeftHandRing3_End			LeftInHandPinky			LeftHandPinky1			LeftHandPinky2			LeftHandPinky3			LeftHandPinky3_End			
		X1	Y1	Z1	X2	Y2	Z2	X3	Y3	Z3	X4	Y4	Z4	X5	Y5	Z5	X6	Y6	Z6	X7	Y7	Z7	X8	Y8	Z8	X9	Y9	Z9	X10	Y10	Z10	X11	Y11	Z11	X12	Y12	Z12	X13	Y13	Z13	X14	Y14	Z14	X15	Y15	Z15	X16	Y16	Z16	X17	Y17	Z17	X18	Y18	Z18	X19	Y19	Z19	X20	Y20	Z20	X21	Y21	Z21	X22	Y22	Z22	X23	Y23	Z23	X24	Y24	Z24	X25	Y25	Z25	X26	Y26	Z26	X27	Y27	Z27	X28	Y28	Z28	X29	Y29	Z29	X30	Y30	Z30	X31	Y31	Z31	X32	Y32	Z32	X33	Y33	Z33	X34	Y34	Z34	X35	Y35	Z35	X36	Y36	Z36	X37	Y37	Z37	X38	Y38	Z38	X39	Y39	Z39	X40	Y40	Z40	X41	Y41	Z41	X42	Y42	Z42	X43	Y43	Z43	X44	Y44	Z44	X45	Y45	Z45	X46	Y46	Z46	X47	Y47	Z47	X48	Y48	Z48	X49	Y49	Z49	X50	Y50	Z50	X51	Y51	Z51	X52	Y52	Z52	X53	Y53	Z53	X54	Y54	Z54	X55	Y55	Z55	X56	Y56	Z56	X57	Y57	Z57	X58	Y58	Z58	X59	Y59	Z59	X60	Y60	Z60	X61	Y61	Z61	X62	Y62	Z62	X63	Y63	Z63	X64	Y64	Z64	X65	Y65	Z65	X66	Y66	Z66	X67	Y67	Z67	X68	Y68	Z68	X69	Y69	Z69	X70	Y70	Z70	X71	Y71	Z71	X72	Y72	Z72	

45	0.183	7198.941	914.58397	126.699	7255.296944460016	898.1906341773464	53.45239519863665	7160.694098387296	501.2274260469778	-41.36182255149672	7142.316406362073	109.7187910059247	-116.8840663744545	6990.541826099922	32.83916490083786	-29.749710589614047	7157.232166980347	904.944201720472	211.22105667067544	7066.316410057627	503.09630008081143	286.517714017929	6995.211756379714	78.68342506549169	378.7143893536545	6873.500683925326	-3.6558392494025607	256.4609979025375	7130.731602793959	1031.396797710905	79.66766756572697	7067.903236235808	1087.4266229158252	31.07011249887754	6999.540963519824	1138.5946635119171	-23.273334308512663	6930.42943447752	1175.7222191610906	-80.55587401444635	6855.514259024041	1215.9256656382786	-140.08285009620167	6785.661056926994	1252.9100781651875	-191.66908276883467	6646.277988351015	1330.4662862760554	-197.61708808426923	6901.444601636215	1204.885043113518	-144.79578414041154	6964.3591246052365	1199.4495748800884	-264.17141237391763	7053.080583531977	933.4668153231255	-308.7940711652545	7066.48538101027	793.893398975761	-518.9722726408672	7073.549295298417	803.3314675106176	-549.6773968793714	7055.76539234579	805.1415094213962	-578.9263377133697	7043.162876381199	803.2927420265662	-598.7839459044349	7032.47038016458	799.0915958691628	-614.900920636589	7076.014695486476	792.8890483246938	-551.188091507055	7078.5173806536695	780.5248859209202	-596.2459317864484	7066.381307549085	772.7881633802742	-624.7887581372399	7051.202041026532	771.9466307368357	-637.9099852752729	7033.488611532097	773.9268906363235	-645.6514955372022	7074.675572249315	784.9038815452839	-548.0953003026834	7076.3962413465115	768.5248230460318	-590.3712708992484	7062.951226941582	759.0700825762904	-620.9594223670763	7044.540973564997	757.5689784614524	-636.5220345523883	7025.112100252043	759.4995682496225	-644.8625247207228	7073.8056061950565	779.5462809225171	-544.7946252045193	7075.002043785142	760.1241502425847	-579.9171299369048	7063.072443456125	750.8747139575551	-605.9407909870085	7045.202290289565	748.8911376518934	-620.6138275330583	7026.881168206638	750.4525523640763	-628.2956539475726	7071.627640876698	773.9784494340502	-539.4157370757297	7071.852836545919	752.6220297047066	-568.4430859260278	7061.964814746286	743.7267458564015	-588.1345291843714	7048.7680834515195	741.5597939835862	-598.2820951147365	7032.445218738122	742.5285165515829	-604.7675291121096	6859.229663432442	1200.401147286658	-94.6146096349942	6807.336455290155	1129.0458107669726	7.828081226459744	6956.553995472009	973.0971196939148	-176.50769944078263	7062.09841894571	859.9069502476598	-402.8331834784173	7092.1452757555935	870.9107564131806	-423.79814902202287	7132.383583034345	862.9983230105248	-432.97608515914624	7159.462597774183	854.2560707398534	-439.97756675449426	7181.230534293095	844.2031176746964	-446.33620771265737	7090.68735606654	861.3136766203486	-429.71869409714407	7134.496762568268	847.2339305006799	-465.2284959593262	7169.441125878424	832.2048334508349	-480.26905801026766	7190.981320094947	823.7152699584873	-481.0591617999587	7208.685544251957	817.2645226421594	-475.9387362660983	7086.809731253505	852.7644932348226	-429.68209099906795	7127.4414303853155	834.4087685267228	-464.3002443650603	7164.92450208918	816.9201240011797	-480.5803976769687	7190.600909081019	806.155245154934	-481.4702151890674	7209.821325464888	798.8429383188491	-475.8367079304579	7082.90953788341	847.1129743090025	-428.8593271222417	7115.813053352251	825.8420416701667	-459.48952058426585	7147.757370526899	809.514503604966	-473.4885889485847	7172.138719163582	798.5550632145437	-474.2455577835559	7190.0280320966995	791.4067660099113	-468.90061123046246	7077.481569146049	840.7772840977361	-426.02165690826564	7104.185003084668	817.455165710805	-452.7441310871456	7128.488909552578	802.7814815538391	-463.5220502039359	7145.655561108024	794.0140352778009	-463.8652073648832	7161.147371852248	787.2365978320629	-459.01018130801276
46	0.188	7198.941	914.58397	126.699	7255.30572384726	898.2001612425585	53.45422617781942	7160.700136780541	501.23714772521447	-41.358597993400274	7142.30054007575	109.72774379612808	-116.87592141525576	6990.52752101928	32.851118844006436	-29.736224529332954	7157.22268443524	904.9335299663808	211.21754869648402	7066.298621773849	503.08738760317215	286.51347862848445	6995.187137657633	78.6781302103777	378.72420532569276	6873.475459106957	-3.6588403907745577	256.4698507152217	7130.734343342789	1031.4014679429163	79.67502767746974	7067.914802870175	1087.4372524982296	31.07360786041546	6999.564313406579	1138.6128279259535	-23.276825478561058	6930.468182582485	1175.7497772611603	-80.57137928505601	6855.568380574616	1215.9626524570792	-140.11084327544145	6785.727830470863	1252.9546721055658	-191.70823090171476	6646.335068895666	1330.4940121240566	-197.6587604729844	6901.502067135241	1204.9286066056463	-144.81480926305125	6964.473464896865	1199.5139701309895	-264.1626691961535	7053.198914555334	933.5257858095913	-308.8669996899239	7066.675334298883	794.1527376893428	-519.4338097062721	7073.752494869485	803.6514123626492	-550.1330073006346	7055.978558620032	805.5212917558044	-579.4182630559842	7043.384207250751	803.7112931839522	-599.3102614695939	7032.699564405838	799.5399843259373	-615.4636910692666	7076.224515086197	793.2042945661613	-551.6746112345111	7078.757692647873	780.9141892140584	-596.8094540700422	7066.6374026390795	773.2282351168195	-625.4121150704931	7051.461601323832	772.4144610234384	-638.5605828780322	7033.746758630358	774.4151306465094	-646.317922918982	7074.887400589138	785.2086206938629	-548.6041887939368	7076.638899137587	768.8961121313592	-590.9673628532953	7063.21126658472	759.4951425628402	-621.6235153683049	7044.80527029237	758.0267470840005	-637.2202926169978	7025.374887847532	759.9792891157974	-645.5787354997747	7074.018144869832	779.8417105485121	-545.3173635991598	7075.24303108546	760.4711509870278	-580.5300760389421	7063.328694363848	751.2668131661056	-606.6156389279168	7045.462707769299	749.3138477755884	-621.3230280433415	7027.140195272323	750.8954580724245	-629.0223968218845	7071.839569152094	774.2609757346115	-539.9521178660989	7072.090723721964	752.9439377632976	-569.0706781741707	7062.214976981828	744.0817831731797	-588.8154026773814	7049.02131021044	741.9357156159923	-598.9898213912063	7032.697228441154	742.921497485814	-605.491828632461	6859.269829051577	1200.4249400793324	-94.64316522089806	6807.328087572689	1129.0471062620022	7.773887390539066	6956.475767802498	973.1618526831433	-176.72237957411613	7062.109025064788	860.1247441306737	-403.1820788268252	7092.182115963996	871.1315855599312	-424.120462921034	7132.445586806475	863.2015778916557	-433.29362227525144	7159.541520211073	854.4492579912194	-440.2994030793666	7181.323043328449	844.3897693059789	-446.6681517546316	7090.724805284403	861.5455151022474	-430.065923711438	7134.571381405423	847.4825171758348	-465.60138592236376	7169.539625775339	832.4493280546908	-480.6597079786102	7191.091185866983	823.9455087287753	-481.45259686627304	7208.8024695267195	817.4750618862709	-476.3289074123838	7086.844146241801	853.0009053399949	-430.0491637401233	7127.510458849177	834.663994677091	-464.70307862015716	7165.019066128637	817.1714143895775	-481.00514654583606	7190.70893445511	806.389590438864	-481.899540570399	7209.936953111946	799.0558522437564	-476.26305333566523	7082.940884275506	847.352367703969	-429.2398201597996	7115.872825607854	826.1014032888463	-459.9138765475939	7147.838809906279	809.770944353925	-473.9345797227926	7172.232829847513	798.795429665169	-474.6973086142707	7190.129142398243	791.6271097928485	-469.35019779275524	7077.50811607326	841.0182307211057	-426.416433483401	7104.234754378672	817.715985375019	-453.1881402150086	7128.554966807284	803.0406689010138	-463.9871452468728	7145.73035571708	794.2618397751513	-464.3363233967283	7161.228076269604	787.4668622164697	-459.4804273501008
47	0.192	7198.941	914.58397	126.699	7255.313950636375	898.2091108964539	53.4559282726373	7160.705520552439	501.24642597987884	-41.355920896409856	7142.284780484878	109.73627920823077	-116.86848173334417	6990.51334590815	32.862635230016885	-29.723421383918122	7157.213689964757	904.9234242652761	211.2142163071139	7066.281342828711	503.0789893354349	286.5091501205056	6995.16258518014	78.67327887259809	378.73306383349046	6873.450357931109	-3.661451319187564	256.47772579423685	7130.737396514523	1031.4062165406062	79.68218721954706	7067.926776011736	1087.4479251250525	31.076753544536604	6999.588142643557	1138.6310053255327	-23.280778758924548	6930.5074332072345	1175.777359686571	-80.58736752616036	6855.623031360792	1215.9996710730488	-140.13934806043207	6785.79517638572	1252.99932778449	-191.74792600962073	6646.393000305958	1330.5221252636245	-197.70161011791038	6901.559622842456	1204.9714612272892	-144.83429872808807	6964.585326479192	1199.574355554726	-264.1529047928298	7053.309929724147	933.5846581416467	-308.9306320613337	7066.8535808572215	794.4113369647214	-519.8736131822695	7073.943490626847	803.9703024074723	-550.565471457908	7056.1800755902495	805.8995748139265	-579.8853119801777	7043.594278401382	804.1280398030417	-599.8104541858778	7032.917816637961	799.986317410495	-615.999264012411	7076.421981886906	793.5184813643612	-552.1376979488293	7078.98517809715	781.3019208212206	-597.3468274650932	7066.880959278278	773.6663305976077	-626.0074768816355	7051.709175347613	772.8800734044545	-639.1823061583917	7033.993628138929	774.9009593960913	-646.9549294454278	7075.086931296796	785.5123275458516	-549.0896278683749	7076.868826882543	769.2658839913287	-591.5373475222907	7063.45890013714	759.9182490412903	-622.2594931758337	7045.05783171253	758.4822731443334	-637.8893779810537	7025.626717801579	760.456557063404	-646.2651771356557	7074.21843063225	780.1361405430158	-545.8167090363687	7075.471398201148	760.8167470750041	-581.1172925382789	7063.572617998736	751.6571335100728	-607.2630182158641	7045.711450604104	749.734503436055	-622.0037457202689	7027.388281550964	751.3361130541964	-629.7200988380857	7072.03935976382	774.5425516280694	-540.4652593497669	7072.316185982036	753.2645554998621	-569.6729775912329	7062.4529669635585	744.4352417297686	-589.469618211087	7049.262849505146	742.3098628898257	-599.6701632340731	7032.938205800315	743.3125333258263	-606.1882570388785	6859.310964303661	1200.4495188089015	-94.67227158825133	6807.32218662078	1129.0534014016596	7.719464737159646	6956.395554742489	973.2288692737171	-176.92836593130613	7062.110614419255	860.340738084193	-403.5136747456342	7092.208246734313	871.3503229506152	-424.42501604378526	7132.495009343022	863.4026825280065	-433.593453684245	7159.606606880029	854.6402462736888	-440.6034774906451	7181.400712654198	844.5741745116261	-446.9822061354295	7090.751570402631	861.7751742788914	-430.39491592853403	7134.632927858956	847.7284542362324	-465.9546671894628	7169.623364403453	832.6910173420665	-481.0303041875063	7191.185371056996	824.1729825726682	-481.8261644248157	7208.90304144253	817.6829621736434	-476.6996774838575	7086.868092217735	853.2351409266372	-430.397813838456	7127.566805188752	834.9165870415511	-465.0860523642561	7165.09914122767	817.4199031979724	-481.40952989219363	7190.8013790918685	806.6211838838792	-482.30871584683655	7210.036272302155	799.2661526552076	-476.6697544831053	7082.961974677467	847.5895966625976	-429.6017886103971	7115.920543746862	826.358195632379	-460.318313077142	7147.906660719157	810.0246724735288	-474.3601934397701	7172.312320283344	799.0331330035772	-475.12888090740876	7190.214958373688	791.8449212533949	-469.78007705000425	7077.524720792596	841.2570553328563	-426.7926554547099	7104.273107303864	817.9743313791404	-453.6122761059304	7128.608467796837	803.2972740923245	-464.43197950330193	7145.791875813147	794.5071012806304	-464.78731323551085	7161.294928770496	787.694701220709	-459.930958759971
48	0.196	7198.941	914.58397	126.699	7255.321625366613	898.2174836592088	53.45750164368426	7160.7102504970835	501.2552610544657	-41.35379025167251	7142.26912831982	109.74439746917578	-116.86174624830304	6990.499301369392	32.873714141132915	-29.711300420419366	7157.205183196061	904.9138841920361	211.21105936184526	7066.26457337133	503.0711048496076	286.50472901229307	6995.138100271908	78.66887056725858	378.74096624596814	6873.425381651222	-3.663672548214791	256.4846245982754	7130.740761542765	1031.411043053709	79.68914609457816	7067.939154169097	1087.458640004244	31.07954993540232	6999.612448897441	1138.6491944831532	-23.285193173193647	6930.547183103432	1175.8049646287132	-80.60383706259486	6855.6782072152555	1216.0367191014925	-140.16836203815922	6785.863089710559	1253.044042304307	-191.7881650068288	6646.451777682281	1330.5506231144432	-197.74563280171913	6901.617265191823	1205.013605662341	-144.85425062007124	6964.694707344895	1199.6307352934998	-264.1421210876801	7053.413637834921	933.6434314089739	-308.98498099657513	7067.020134446028	794.6691890232377	-520.2916978552985	7074.122296855544	804.2881280693922	-550.9748060471164	7056.369956761096	806.2763470043587	-580.3275021268712	7043.793102697873	804.5429689693281	-600.2845420700562	7033.125149109811	800.430581174299	-616.5076575546657	7076.607109984831	793.8315992863348	-552.5773675417299	7079.1998507820435	781.6880689999389	-597.8580683653897	7067.111990446925	774.1024363739084	-626.5748601408814	7051.944775364913	773.3434534295138	-639.7751718922625	7034.22923158905	775.3843616455345	-647.5625321274733	7075.274178189681	785.81499296329	-549.5516326243574	7077.086037940199	769.634127394946	-592.0812400652167	7063.694140047885	760.3393889650663	-622.8673710346322	7045.2986693965495	758.9355424096482	-638.5293060865743	7025.8676008716475	760.9313570069494	-646.9218653026894	7074.40647711596	780.4295620364918	-546.2926760411956	7075.687158210607	761.1609279973521	-581.6787935166527	7063.804226609593	752.0456629484315	-607.8829428985562	7045.948530176452	750.1530914749296	-622.6559947437424	7027.625437650816	751.774503362019	-630.3887743670822	7072.227026101919	774.8231686127122	-540.9551753763792	7072.529236074073	753.5838731384554	-570.2499972040705	7062.678796720336	744.7871106096487	-590.0971886170125	7049.492712706096	742.6822241152181	-600.323133489978	7033.168161484989	743.7016117067844	-606.8568273004059	6859.3530650174025	1200.4748803878972	-94.7019263047919	6807.318748232538	1129.064686586104	7.664815919502533	6956.313365392899	973.2981630271059	-177.12566221559592	7062.10320373521	860.554927427844	-403.82798442680325	7092.223686112184	871.5669651911921	-424.71182291029436	7132.531870058438	863.6016350648637	-433.87559387636145	7159.6578781025	854.8290346479945	-440.8898043516996	7181.463563308349	844.7563329816209	-447.27838502187467	7090.7676694245765	862.0026502544385	-430.7056851352156	7134.6814217021165	847.9717386584842	-466.28835503692875	7169.692362754632	832.929899210054	-481.3808618627552	7191.263897307628	824.3976901913309	-482.17987931990274	7208.987282108621	817.8882230273346	-477.0510607729427	7086.881586996644	853.4671956576663	-430.7280553294253	7127.610488843995	835.1665418952268	-465.4491803104368	7165.164748125414	817.6655876452548	-481.7935623239176	7190.878264500904	806.8500236498447	-482.6977551419726	7210.119305048523	799.4738385982195	-477.0568248808125	7082.9728267268165	847.8246565097731	-429.9452462446965	7115.956226708954	826.6124142690765	-460.7028443395451	7147.960943003784	810.2756842917614	-474.76544412212013	7172.377211234554	799.2681704319831	-475.54028819065036	7190.285501251331	792.0601984101954	-470.19026193793866	7077.531400683926	841.4937528747539	-427.15033621252076	7104.300080276785	818.2301986387698	-454.0165523003152	7128.649431759057	803.5512925524928	-464.8565663148679	7145.84014113477	794.749815808645	-465.2181898215234	7161.347949488956	787.9201115547947	-460.36178793031775
